<svg width="100" height="100" viewBox="0 0 100 100" xmlns="http://www.w3.org/2000/svg">
  <!-- Background circle -->
  <circle cx="50" cy="50" r="45" fill="#FFDE00" />
  
  <!-- Paper plane in anime style -->
  <g transform="translate(50, 50) rotate(30) translate(-25, -25) scale(0.9)">
    <!-- Plane body -->
    <path d="M10,30 L45,10 L35,40 L10,30 Z" fill="#FFFFFF" stroke="#353B48" stroke-width="2" stroke-linejoin="round" />
    
    <!-- Plane wing -->
    <path d="M10,30 L35,40 L25,50 L10,30 Z" fill="#FFFFFF" stroke="#353B48" stroke-width="2" stroke-linejoin="round" />
    
    <!-- Window -->
    <circle cx="25" cy="25" r="3" fill="#353B48" />
  </g>
  
  <!-- Flight path lines -->
  <path d="M15,65 Q 50,30 85,65" stroke="#FFFFFF" stroke-width="4" stroke-linecap="round" stroke-dasharray="1, 8" fill="none" />
  
  <!-- Small clouds -->
  <g transform="translate(20, 70) scale(0.8)">
    <ellipse cx="0" cy="0" rx="10" ry="7" fill="#FFFFFF" />
    <ellipse cx="-5" cy="-3" rx="7" ry="5" fill="#FFFFFF" />
    <ellipse cx="5" cy="-2" rx="7" ry="5" fill="#FFFFFF" />
  </g>
  
  <g transform="translate(70, 55) scale(0.6)">
    <ellipse cx="0" cy="0" rx="10" ry="7" fill="#FFFFFF" />
    <ellipse cx="-5" cy="-3" rx="7" ry="5" fill="#FFFFFF" />
    <ellipse cx="5" cy="-2" rx="7" ry="5" fill="#FFFFFF" />
  </g>
  
  <!-- Stars for anime style -->
  <g fill="#FFFFFF">
    <path d="M75,25 L77,30 L82,30 L78,33 L80,38 L75,35 L70,38 L72,33 L68,30 L73,30 Z" />
    <path d="M30,20 L31,23 L34,23 L32,25 L33,28 L30,26 L27,28 L28,25 L26,23 L29,23 Z" />
  </g>
</svg>
